<svg id="图层_1" data-name="图层 1" xmlns="http://www.w3.org/2000/svg" xmlns:xlink="http://www.w3.org/1999/xlink" viewBox="0 0 82.01 94.78"><defs><style>.cls-1{fill:#e5e6e7;}.cls-2,.cls-20,.cls-4,.cls-6,.cls-7,.cls-8,.cls-9{fill:none;}.cls-10,.cls-11,.cls-12,.cls-13,.cls-14,.cls-15,.cls-16,.cls-17,.cls-18,.cls-19,.cls-2,.cls-20,.cls-21,.cls-4,.cls-6,.cls-7,.cls-8,.cls-9{stroke:#000;stroke-miterlimit:10;}.cls-3{fill:#f1f2f2;}.cls-4{stroke-width:0.5px;}.cls-5{font-size:12px;font-family:TimesNewRomanPS-BoldMT, Times New Roman;font-weight:700;}.cls-6{stroke-width:0.8px;}.cls-7,.cls-9{stroke-width:0.4px;}.cls-8{stroke-width:1.5px;}.cls-9{stroke-dasharray:1.08 1;}.cls-10,.cls-11,.cls-12,.cls-13,.cls-14,.cls-15,.cls-16,.cls-17,.cls-18,.cls-19,.cls-21{stroke-width:0.25px;}.cls-10{fill:url(#未命名的渐变_10);}.cls-11{fill:url(#未命名的渐变_14);}.cls-12{fill:url(#未命名的渐变_24);}.cls-13{fill:url(#未命名的渐变_19);}.cls-14{fill:url(#未命名的渐变_20);}.cls-15{fill:url(#未命名的渐变_22);}.cls-16{fill:url(#未命名的渐变_18);}.cls-17{fill:url(#未命名的渐变_14-2);}.cls-18{fill:url(#未命名的渐变_14-3);}.cls-19{fill:url(#未命名的渐变_24-2);}.cls-20{stroke-width:3px;}.cls-21{fill:url(#未命名的渐变_16);}</style><radialGradient id="未命名的渐变_10" cx="41.11" cy="17.56" r="4.49" gradientUnits="userSpaceOnUse"><stop offset="0" stop-color="#fff"/><stop offset="1" stop-color="#e31a00"/></radialGradient><radialGradient id="未命名的渐变_14" cx="59.45" cy="36.31" r="4.49" gradientUnits="userSpaceOnUse"><stop offset="0" stop-color="#fff"/><stop offset="1" stop-color="#8bce9d"/></radialGradient><radialGradient id="未命名的渐变_24" cx="48" cy="55.57" r="4.49" gradientUnits="userSpaceOnUse"><stop offset="0" stop-color="#fff"/><stop offset="1" stop-color="#1f7ee0"/></radialGradient><radialGradient id="未命名的渐变_19" cx="70.9" cy="55.57" r="4.49" gradientUnits="userSpaceOnUse"><stop offset="0" stop-color="#fff"/><stop offset="1" stop-color="#7fa8b0"/></radialGradient><radialGradient id="未命名的渐变_20" cx="22.41" cy="55.57" r="4.49" gradientUnits="userSpaceOnUse"><stop offset="0" stop-color="#fff"/><stop offset="1" stop-color="#f6a7df"/></radialGradient><radialGradient id="未命名的渐变_22" cx="33.92" cy="55.57" r="4.49" gradientUnits="userSpaceOnUse"><stop offset="0" stop-color="#fff"/><stop offset="1" stop-color="#f9a62c"/></radialGradient><radialGradient id="未命名的渐变_18" cx="10.89" cy="55.57" r="4.49" gradientUnits="userSpaceOnUse"><stop offset="0" stop-color="#fff"/><stop offset="1" stop-color="#d67b79"/></radialGradient><radialGradient id="未命名的渐变_14-2" cx="68.59" cy="33.27" r="0" xlink:href="#未命名的渐变_14"/><radialGradient id="未命名的渐变_14-3" cx="68.59" cy="29.16" r="0" xlink:href="#未命名的渐变_14"/><radialGradient id="未命名的渐变_24-2" cx="20.05" cy="48.99" r="0" xlink:href="#未命名的渐变_24"/><radialGradient id="未命名的渐变_16" cx="22.41" cy="36.31" r="4.49" gradientUnits="userSpaceOnUse"><stop offset="0" stop-color="#fff"/><stop offset="1" stop-color="#fddbb8"/></radialGradient></defs><title>logo</title><polygon class="cls-1" points="41.01 0.58 0.5 24.05 0.5 70.82 41.01 94.2 81.51 70.82 81.51 24.05 41.01 0.58"/><polygon class="cls-2" points="41.01 0.58 0.5 24.05 0.5 70.82 41.01 94.2 81.51 70.82 81.51 24.05 41.01 0.58"/><polygon class="cls-3" points="41.01 2.33 1.97 24.88 1.97 69.99 41.01 92.54 80.13 69.99 80.13 24.88 41.01 2.33"/><polygon class="cls-4" points="41.01 2.33 1.97 24.88 1.97 69.99 41.01 92.54 80.13 69.99 80.13 24.88 41.01 2.33"/><text class="cls-5" transform="translate(9.12 72.13)">HematoMap</text><polyline class="cls-6" points="22.32 32.12 22.32 26.99 41.07 26.99 41.07 21.85"/><polyline class="cls-6" points="59.3 32.12 59.3 26.99 41.07 26.99"/><polyline class="cls-2" points="17.86 36.23 11.02 36.23 11.02 51.13"/><polyline class="cls-7" points="55.2 36.23 48 36.23 48 51.13"/><polyline class="cls-8" points="26.95 36.23 33.78 36.23 33.78 51.13"/><polyline class="cls-9" points="63.93 36.23 70.77 36.23 70.77 51.13"/><circle class="cls-10" cx="41.11" cy="17.56" r="4.49"/><circle class="cls-11" cx="59.45" cy="36.31" r="4.49"/><circle class="cls-12" cx="48" cy="55.57" r="4.49"/><circle class="cls-13" cx="70.9" cy="55.57" r="4.49"/><circle class="cls-14" cx="22.41" cy="55.57" r="4.49"/><circle class="cls-15" cx="33.92" cy="55.57" r="4.49"/><circle class="cls-16" cx="10.89" cy="55.57" r="4.49"/><path class="cls-17" d="M68.59,33.27" transform="translate(-11.6 -6.6)"/><path class="cls-18" d="M68.59,29.16" transform="translate(-11.6 -6.6)"/><path class="cls-19" d="M20.05,49" transform="translate(-11.6 -6.6)"/><line class="cls-20" x1="22.32" y1="38.9" x2="22.32" y2="51.13"/><circle class="cls-21" cx="22.41" cy="36.31" r="4.49"/></svg>